<svg width="932" height="80" viewBox="0 0 932 80" fill="none" xmlns="http://www.w3.org/2000/svg">
<path d="M100 75.52V7.9H131.262C141.519 7.9 146.648 13.0613 146.648 23.384V29.852C146.648 32.0733 145.995 33.968 144.688 35.536L141.258 39.652L145.374 43.082C147.53 44.846 148.608 47.4593 148.608 50.922V60.036C148.608 70.3587 143.479 75.52 133.222 75.52H100ZM109.898 66.504H133.124C136.848 66.504 138.71 64.6747 138.71 61.016V50.334C138.71 46.61 136.848 44.748 133.124 44.748H109.898V66.504ZM109.898 35.732H131.164C134.888 35.732 136.75 33.87 136.75 30.146V22.404C136.75 18.7453 134.888 16.916 131.164 16.916H109.898V35.732Z" fill="white"/>
<path d="M161.591 60.428V39.358C161.591 29.362 166.589 24.364 176.585 24.364H190.305C200.301 24.364 205.299 29.362 205.299 39.358V60.428C205.299 70.4893 200.301 75.52 190.305 75.52H176.585C166.589 75.52 161.591 70.4893 161.591 60.428ZM171.097 61.408C171.097 65.2627 173.025 67.19 176.879 67.19H190.109C193.899 67.19 195.793 65.2627 195.793 61.408V38.378C195.793 34.5887 193.899 32.694 190.109 32.694H176.879C173.025 32.694 171.097 34.5887 171.097 38.378V61.408Z" fill="white"/>
<path d="M216.857 75.52V68.17L244.591 32.694H217.837V24.364H256.645V31.616L228.911 67.19H257.625V75.52H216.857Z" fill="white"/>
<path d="M269.946 75.52V3H279.452V24.364H297.68C307.676 24.364 312.674 29.362 312.674 39.358V75.52H303.168V38.378C303.168 34.5887 301.273 32.694 297.484 32.694H279.452V75.52H269.946Z" fill="white"/>
<path d="M327.167 15.152V4.76399H337.359V15.152H327.167ZM327.559 75.52V24.364H337.065V75.52H327.559Z" fill="white"/>
<path d="M351.562 60.428V39.358C351.562 29.362 356.56 24.364 366.556 24.364H384.784V3H394.29V75.52H366.556C356.56 75.52 351.562 70.4893 351.562 60.428ZM361.068 61.408C361.068 65.2627 362.995 67.19 366.85 67.19H384.784V32.694H366.85C362.995 32.694 361.068 34.5887 361.068 38.378V61.408Z" fill="white"/>
<path d="M421.925 75.52C411.863 75.52 406.833 70.522 406.833 60.526C406.833 50.53 411.863 45.532 421.925 45.532H438.487V38.378C438.487 34.5887 436.592 32.694 432.803 32.694H411.831V27.696L416.339 24.364H432.999C442.995 24.364 447.993 29.362 447.993 39.358V75.52H421.925ZM416.339 61.408C416.339 65.2627 418.266 67.19 422.121 67.19H438.487V52.98H422.121C418.266 52.98 416.339 54.9073 416.339 58.762V61.408Z" fill="white"/>
<path d="M462.491 75.52V30.44C464.778 26.3893 469.123 24.364 475.525 24.364H485.619L490.127 27.696V32.694H477.387C474.839 32.694 473.043 33.3473 471.997 34.654V75.52H462.491Z" fill="white"/>
<path d="M518.064 73.462L539.722 7.9H555.5L577.06 73.462L575.786 75.52H567.456L562.36 59.448H532.862L527.668 75.52H519.436L518.064 73.462ZM535.704 50.432H559.518L548.64 16.916H546.582L535.704 50.432Z" fill="white"/>
<path d="M586.14 60.134V3H595.646V61.114C595.646 65.4913 597.867 67.8433 602.31 68.17V76.402C591.53 76.402 586.14 70.9793 586.14 60.134Z" fill="white"/>
<path d="M625.868 75.52C615.807 75.52 610.776 70.522 610.776 60.526C610.776 50.53 615.807 45.532 625.868 45.532H642.43V38.378C642.43 34.5887 640.535 32.694 636.746 32.694H615.774V27.696L620.282 24.364H636.942C646.938 24.364 651.936 29.362 651.936 39.358V75.52H625.868ZM620.282 61.408C620.282 65.2627 622.209 67.19 626.064 67.19H642.43V52.98H626.064C622.209 52.98 620.282 54.9073 620.282 58.762V61.408Z" fill="white"/>
<path d="M666.043 60.428V39.358C666.043 29.362 671.041 24.364 681.037 24.364H699.265V3H708.771V75.52H681.037C671.041 75.52 666.043 70.4893 666.043 60.428ZM675.549 61.408C675.549 65.2627 677.476 67.19 681.331 67.19H699.265V32.694H681.331C677.476 32.694 675.549 34.5887 675.549 38.378V61.408Z" fill="white"/>
<path d="M721.117 75.52V68.17L748.851 32.694H722.097V24.364H760.905V31.616L733.171 67.19H761.885V75.52H721.117Z" fill="white"/>
<path d="M774.206 75.52V3H783.712V24.364H801.94C811.936 24.364 816.934 29.362 816.934 39.358V75.52H807.428V38.378C807.428 34.5887 805.533 32.694 801.744 32.694H783.712V75.52H774.206Z" fill="white"/>
<path d="M831.035 60.428V39.358C831.035 29.362 836.033 24.364 846.029 24.364H859.749C869.745 24.364 874.743 29.362 874.743 39.358V60.428C874.743 70.4893 869.745 75.52 859.749 75.52H846.029C836.033 75.52 831.035 70.4893 831.035 60.428ZM840.541 61.408C840.541 65.2627 842.468 67.19 846.323 67.19H859.553C863.342 67.19 865.237 65.2627 865.237 61.408V38.378C865.237 34.5887 863.342 32.694 859.553 32.694H846.323C842.468 32.694 840.541 34.5887 840.541 38.378V61.408Z" fill="white"/>
<path d="M883.459 25.932L884.537 24.364H892.769L906.685 67.19H908.449L922.463 24.364H930.597L931.675 25.932L915.015 75.52H900.217L883.459 25.932Z" fill="white"/>
<path d="M0 80V0H80V80H0Z" fill="#FD8922"/>
<path d="M5 16.4H31C31 16.4 35 18.5001 35 27.6C35 36.7 31 38.4 31 38.4H5V16.4Z" fill="white"/>
<path d="M5 41.4H36.2C36.2 41.4 41 43.5001 41 52.6C41 61.7 36.2 63.4 36.2 63.4H5V41.4Z" fill="white"/>
<path fill-rule="evenodd" clip-rule="evenodd" d="M71.0426 51L60 16.4L48.9574 51H71.0426ZM72 54H48L45 63.4H75L72 54Z" fill="white"/>
</svg>
