<svg width="1920" height="960" viewBox="0 0 1920 960" fill="none" xmlns="http://www.w3.org/2000/svg">
<g clip-path="url(#clip0_1_2)">
<path d="M217.965 511.635C216.504 517.41 215.805 544.127 212.884 550.219C209.047 557.805 207.418 566.314 208.185 574.779C209.439 582.042 212.022 589.013 215.805 595.34C220.124 601.115 221.584 605.113 223.743 607.271C225.903 609.429 223.045 635.765 225.521 639.763C227.998 643.761 247.939 661.784 250.098 664.64C252.09 671.884 253.198 679.342 253.4 686.851C247.342 696.643 242.481 707.126 238.921 718.074C235.301 731.084 237.461 767.13 238.159 782.297C238.858 797.464 248.32 890.561 245.398 907.188C242.477 923.815 247.558 951.23 248.32 959.861C249.082 968.491 251.876 1009.68 251.876 1044.33C251.876 1078.98 252.638 1097 251.177 1105.63C249.717 1114.26 249.018 1141.04 244.827 1161.98C240.636 1182.93 231.11 1267.33 230.348 1274.56C229.586 1281.8 233.269 1286.81 241.207 1294.75C249.145 1302.68 253.464 1301.98 253.464 1306.29C253.464 1310.61 244.827 1312.64 244.827 1320.76C245.556 1329.51 247.701 1338.09 251.177 1346.15C253.337 1351.23 242.541 1360.55 243.239 1366.33C243.938 1372.1 248.32 1369.95 248.32 1369.95C248.32 1369.95 245.399 1377.18 246.859 1380.04C248.32 1382.89 242.541 1384.29 246.097 1387.91L250.479 1390H396.54C397.984 1387.66 398.922 1385.05 399.294 1382.33C399.665 1379.61 399.463 1376.84 398.699 1374.2C398.699 1374.2 405.939 1383.65 429.054 1383.65C452.17 1383.65 520.755 1380.73 520.755 1380.73C520.755 1380.73 529.455 1378.58 530.916 1374.39C532.376 1370.2 527.296 1368.61 527.296 1368.61C527.296 1368.61 523.676 1355.92 514.278 1355.92C503.69 1356.48 493.074 1356.23 482.525 1355.16C478.905 1353.76 455.79 1341.45 455.028 1336.12C454.266 1330.79 453.631 1328.89 450.011 1328.89C446.391 1328.89 455.79 1319.49 454.329 1309.4C452.869 1299.31 444.232 1300.01 431.912 1274.75C419.592 1249.5 417.497 1204 416.798 1194.6C416.099 1185.21 429.499 1206.91 439.151 1113.06C448.804 1019.2 442.073 999.778 447.089 986.134C452.106 972.49 457.949 930.605 461.569 910.361C466.222 874.34 465.237 837.815 458.647 802.097C459.869 798.81 460.845 795.437 461.569 792.006C462.136 779.296 461.647 766.56 460.108 753.93C458.647 748.853 456.488 737.366 460.108 733.749C463.728 730.132 471.666 723.595 472.809 721.438C475.169 716.833 477.289 712.109 479.159 707.286C483.922 707.286 493.893 707.286 496.179 696.941C497.601 687.343 496.073 677.54 491.797 668.828C491.797 666.226 490.971 663.624 490.527 661.213L495.099 660.451C497.957 660.134 504.117 656.136 509.515 657.976C510.673 658.516 511.986 658.626 513.218 658.289C514.451 657.952 515.524 657.189 516.246 656.136C516.917 655.883 517.539 655.518 518.088 655.057C520.691 652.392 521.454 648.711 523.359 647.569C525.264 646.426 529.709 648.076 532.757 645.411C535.806 642.746 533.456 639.89 536.822 637.986C540.188 636.082 542.855 637.225 545.966 634.369C549.078 631.513 548.38 630.054 547.173 628.023C545.751 625.795 544.7 623.352 544.061 620.788C544.061 618.63 545.712 619.011 548.634 619.075C551.722 619.265 554.785 618.416 557.334 616.663C560.953 614.506 561.398 613.744 561.97 608.223C562.414 604.352 557.842 601.877 555.619 601.877C554.681 601.91 553.768 602.185 552.967 602.674C552.166 603.163 551.505 603.85 551.047 604.669C550.602 605.494 551.047 606.002 546.856 606.129C540.95 606.129 540.505 603.527 538.918 602.511C537.33 601.496 538.917 593.373 542.029 589.058C547.185 584.009 552.001 578.624 556.445 572.939C560.065 566.91 556.445 564.498 552.634 563.102C548.824 561.706 539.933 572.685 537.203 575.096C534.472 577.508 528.312 583.283 525.645 586.202C522.13 588.785 518.438 591.118 514.595 593.183C511.52 595.674 508.614 598.367 505.895 601.242C501.707 602.323 497.749 604.15 494.21 606.636C488.812 610.634 484.811 612.031 480.874 608.794C479.313 607.5 477.907 606.031 476.683 604.415C475.667 600.1 474.714 595.975 473.889 592.358C473.381 586.329 472.745 579.094 472.555 575.921C471.883 571.177 470.513 566.558 468.491 562.214C468.254 561.31 467.913 560.437 467.475 559.612C467.297 559.287 467.148 558.947 467.03 558.596C473.183 558.411 479.316 557.796 485.383 556.756C493.067 555.043 492.75 553.773 494.591 551.996C494.913 551.706 495.153 551.336 495.287 550.923C495.421 550.511 495.444 550.07 495.354 549.646C495.264 549.222 495.064 548.829 494.774 548.507C494.484 548.184 494.114 547.943 493.702 547.808C492.559 547.808 474.651 547.808 473.063 547.808C469.481 548.169 465.87 547.509 462.648 545.904C462.413 545.673 462.232 545.393 462.119 545.083C462.006 544.774 461.963 544.443 461.993 544.115C462.024 543.787 462.127 543.47 462.295 543.187C462.463 542.904 462.692 542.661 462.966 542.477C464.19 541.609 465.57 540.984 467.03 540.637C476.968 539.651 486.955 539.227 496.941 539.368C498.688 539.549 500.453 539.366 502.125 538.831C503.798 538.295 505.341 537.419 506.657 536.258C509.197 533.91 506.657 531.499 505.514 530.42C500.371 529.389 495.137 528.879 489.892 528.897H459.537C458.565 528.979 457.587 528.979 456.615 528.897C456.298 527.945 456.044 526.993 455.726 526.104C462.268 525.108 468.863 524.493 475.476 524.264C481.709 524.343 487.941 524.089 494.147 523.502C495.289 523.294 496.343 522.747 497.17 521.932C497.997 521.117 498.559 520.072 498.782 518.933C498.884 517.964 498.772 516.985 498.454 516.064C498.136 515.143 497.619 514.302 496.941 513.602C490.988 512.221 484.889 511.561 478.778 511.635C475.476 511.635 457.631 511.635 454.71 511.635C451.789 511.635 450.519 510.239 451.217 506.749C451.916 503.258 458.267 499.895 462.458 497.166C466.382 495.47 470.498 494.255 474.714 493.549C478.144 492.851 478.779 491.201 478.207 487.203C477.635 483.205 472.555 483.395 469.253 483.395C463.952 483.7 458.708 484.637 453.631 486.187C451.441 487.493 449.321 488.912 447.28 490.439C446.899 485.362 446.645 480.412 446.582 476.795C448.614 475.082 452.932 474.003 454.456 467.847C456.298 460.739 451.154 458.582 449.185 461.12C448.258 462.075 447.213 462.907 446.074 463.595C445.803 458.026 445.231 452.475 444.359 446.968C443.279 441.003 438.009 433.451 438.961 430.215C440.569 424.551 440.569 418.553 438.961 412.89C436.802 408.574 438.961 402.228 426.895 393.851C426.666 388.012 426.772 382.164 427.212 376.336C430.278 371.946 434.294 368.302 438.961 365.675C446.01 363.517 474.206 358.059 477.445 350.507C480.684 342.956 475.286 331.469 477.953 331.025C479.138 330.644 480.185 329.924 480.964 328.954C481.743 327.984 482.22 326.806 482.335 325.567C482.843 323.41 477.953 320.744 477.953 320.744C477.953 320.744 483.922 320.173 485.002 318.587C486.082 317 482.843 307.163 484.494 305.577C488.092 305.286 491.625 304.452 494.972 303.102C498.846 300.817 495.48 293.519 493.13 289.014C490.781 284.508 481.446 270.42 482.843 267.373C484.605 263.798 486.009 260.056 487.034 256.204C486.62 249.168 485.707 242.17 484.303 235.262C483.922 231.264 484.303 224.41 486.844 223.903C490.23 223.137 493.775 223.494 496.941 224.918C496.941 224.918 500.751 213.558 485.573 199.978C470.396 186.397 428.419 161.013 404.859 170.786C404.859 170.786 399.969 162.663 388.602 170.214C387.126 172.032 385.287 173.523 383.204 174.593C378.722 174.752 374.353 176.04 370.503 178.337C364.597 182.145 348.34 193.505 343.45 208.672C338.56 223.839 332.591 288.76 345.609 308.242C346.647 311.791 348.894 314.867 351.96 316.937C351.96 316.937 350.943 316.937 350.562 317.317C350.181 317.698 340.973 336.863 339.195 339.719L333.416 343.336C330.466 345.585 326.948 346.969 323.255 347.334C319.318 347.334 293.281 357.425 290.804 357.044C288.328 356.663 285.724 360.28 273.468 368.594C264.508 374.636 257.073 382.674 251.749 392.074C249.272 396.771 250.352 399.309 246.351 404.005C242.35 408.701 243.112 418.03 239.492 423.488C234.588 435.578 232.127 448.519 232.253 461.564C233.714 467.91 228.697 481.428 227.554 488.599C226.41 495.77 219.425 505.86 217.965 511.635Z" fill="white"/>
<path d="M1001.04 463.325L1000.28 466.117L995 466.498L1064.93 560.275C1064.13 568.958 1062.17 577.495 1059.09 585.654C1054.57 595.108 1051.14 608.686 1053.43 612.81C1055.72 616.934 1053.43 630.258 1070.15 633.811C1073.39 634.509 1077.78 629.814 1081.02 628.862C1095.01 624.611 1109.12 609.828 1117 599.803L1118.21 598.28L1131.75 603.102C1131.86 604.454 1131.86 605.812 1131.75 607.163C1130.61 609.574 1131.75 622.962 1127.56 625.69C1125.71 626.688 1124.28 628.308 1123.53 630.261C1122.77 632.214 1122.73 634.372 1123.42 636.35C1124.51 641.045 1117.07 659.127 1113.95 670.548C1108.82 688.136 1104.76 706.019 1101.81 724.099C1101.81 725.304 1101.81 727.271 1101.81 729.936C1101.81 731.142 1101.81 732.537 1101.81 733.997C1101.11 759.947 1100.03 822.444 1096.85 840.4C1094.76 852.398 1093.95 864.586 1094.43 876.756C1094.31 877.746 1094.31 878.748 1094.43 879.738C1095.32 882.339 1102.51 884.56 1107.15 885.702L1111.03 887.605V886.527H1111.47C1115.86 911.018 1127.68 974.974 1133.66 982.08C1141.03 990.963 1138.75 1000.42 1139.32 1009.24C1139.89 1018.06 1140.46 1031.06 1144.4 1037.03C1148.35 1042.99 1142.69 1081.44 1146.69 1099.59C1150.7 1117.73 1162.02 1194 1166.53 1229.4C1171.04 1264.81 1172.89 1271.34 1170.53 1281.37C1168.18 1291.39 1161.44 1333.9 1153.5 1338.47C1145.55 1343.04 1131.37 1344.81 1122.85 1347.29C1114.33 1349.76 1108.67 1359.98 1113.19 1366.32C1117.7 1372.67 1112.04 1381.68 1168.82 1381.68C1168.82 1381.68 1187.89 1385.23 1194.25 1360.99C1200.61 1336.76 1215.8 1319.12 1222.03 1317.91C1222.03 1317.91 1228.83 1353.38 1229.41 1366.32L1229.98 1379.33C1229.98 1379.33 1281.6 1385.68 1297.5 1381.68C1313.39 1377.68 1312.82 1382.25 1313.96 1371.65C1315.11 1361.06 1316.82 1342.15 1319.68 1342.15C1322.55 1342.15 1325.34 1378.13 1325.34 1378.13L1333.86 1379.9C1333.86 1379.9 1333.86 1333.84 1341.81 1312.01C1349.76 1290.19 1335.45 1262.46 1325.92 1254.15C1316.38 1245.84 1321.91 1212.84 1324.77 1189.24C1327.63 1165.64 1337.1 1111.26 1322.42 1051.62C1307.73 991.978 1292.41 981.446 1296.35 950.102C1299.66 924.723 1302.71 887.859 1304.3 873.139C1305.22 873.772 1306.27 874.178 1307.38 874.321C1308.48 874.465 1309.61 874.342 1310.66 873.964C1312.63 873.964 1314.34 873.52 1314.92 871.997C1316.44 868.063 1325.53 813.751 1327 794.463C1327.95 782.408 1328.46 754.237 1328.33 732.157C1329.95 722.997 1329.67 713.603 1327.5 704.557C1327.5 704.557 1327.5 704.176 1327.5 703.985C1326.04 693.326 1327.89 671.69 1322.23 651.26C1316.57 630.829 1312.37 646.12 1315.43 613.825C1312.27 606.335 1309.7 598.614 1307.73 590.73C1322.23 591.618 1340.09 592.887 1347.21 593.775C1359.93 595.362 1362.34 573.662 1361.96 569.348C1361.58 565.033 1357.77 557.547 1356.3 511.102C1354.84 464.658 1334.69 409.204 1324.52 383.571C1314.92 359.587 1284.84 361.871 1279.12 365.869C1274.74 366.757 1263.8 368.597 1261.19 366.567C1262.47 366.567 1249.05 361.808 1244.54 354.448C1240.45 348.758 1238.74 341.704 1239.77 334.779C1240.98 329.322 1243.27 335.858 1247.84 334.018C1252.42 332.178 1255.41 324.818 1257.38 323.485C1259.35 322.153 1263.74 324.056 1270.1 317.14C1276.45 310.224 1275.12 307.433 1277.66 307.433C1280.2 307.433 1279.44 310.605 1281.41 308.258C1283.38 305.91 1284.72 296.202 1286.94 292.522C1289.17 288.842 1290.25 292.522 1291.27 280.404C1292.28 268.285 1295.02 236.624 1288.47 216.955C1281.92 197.286 1266.03 176.285 1256.68 174.445C1243.33 171.78 1235 181.995 1227.44 181.234C1219.87 180.472 1221.08 179.648 1206.26 177.3C1195.78 176.739 1185.29 178.337 1175.44 181.993C1165.6 185.65 1156.61 191.287 1149.05 198.555C1133.91 214.29 1124.82 247.347 1125.59 258.387C1126.38 266.198 1128.17 273.875 1130.93 281.228C1130.93 281.228 1133.41 282.815 1129.15 289.35C1129.15 289.35 1129.15 296.71 1132.9 297.217C1132.9 297.217 1132.9 304.831 1134.68 307.179C1136.46 309.527 1135.19 311.113 1135.44 312.699C1135.69 314.285 1137.98 314.793 1138.24 316.125C1138.37 317.633 1137.92 319.134 1136.97 320.313C1135.95 321.899 1136.97 322.407 1138.49 324.5C1139.22 325.374 1139.74 326.392 1140.04 327.487C1140.34 328.581 1140.39 329.727 1140.21 330.845C1139.35 335.437 1139.35 340.149 1140.21 344.74C1141.75 347.327 1144.16 349.283 1147.01 350.26C1150.83 351.339 1162.65 350.26 1166.08 351.847C1169.52 353.433 1179.69 368.089 1175.94 386.997C1175.51 388.43 1174.98 389.83 1174.35 391.185C1174.19 390.732 1174.19 390.241 1174.35 389.789C1174.35 389.789 1170.92 397.212 1129.34 412.567C1121.01 413.399 1112.92 415.811 1105.5 419.673C1093.73 426.018 1090.75 445.623 1088.84 452.349C1086.93 459.074 1082.8 478.68 1082.8 478.68L1087.5 480.012C1086.48 480.345 1085.51 480.837 1084.64 481.472L1001.04 463.325ZM1109.63 877.454C1109.63 878.215 1110.07 880.118 1110.58 882.974L1109.63 877.454ZM1220.63 996.419C1223.48 1003.24 1226.99 1009.77 1231.12 1015.9C1238.37 1032.23 1244.42 1049.07 1249.24 1066.28C1254.58 1082.84 1276.01 1176.36 1278.23 1196.28C1280.08 1211.65 1281.01 1227.12 1281.03 1242.6C1281.03 1248.12 1276.52 1263.85 1275.75 1274.89C1274.2 1287.15 1271.67 1299.27 1268.19 1311.12C1265.9 1319.75 1256.81 1338.66 1243.2 1346.53C1243.2 1346.53 1237.93 1329.21 1243.2 1317.41C1248.48 1305.6 1255.35 1295.39 1253.06 1285.11C1250.77 1274.83 1239.45 1255.99 1233.98 1255.99C1228.52 1255.99 1226.42 1254.4 1221.9 1238.67C1217.39 1222.93 1218.85 1161.51 1224.89 1131.63C1230.93 1101.74 1225.66 1071.8 1218.53 1041.91C1218.85 1041.91 1220.89 1018.44 1220.63 996.419ZM1139.89 277.231C1138.97 278.529 1137.72 279.558 1136.27 280.213L1135.76 278.881C1135.33 277.294 1134.99 275.684 1134.74 274.059C1134.74 272.219 1136.97 271.267 1138.94 270.759C1141.93 270.252 1141.29 275.074 1139.89 277.231Z" fill="white"/>
<path d="M682.814 297.088C677.424 299.435 634.308 315.734 628.475 319.603C627.751 320.289 626.892 320.818 625.954 321.157C625.016 321.495 624.017 321.636 623.022 321.569C622.357 321.5 621.685 321.565 621.046 321.763C620.407 321.96 619.815 322.285 619.306 322.718C618.796 323.151 618.379 323.682 618.081 324.281C617.782 324.879 617.608 325.532 617.569 326.199C617.188 328.926 607.107 358.481 607.107 374.019C607.668 383.083 606.06 392.15 602.415 400.466C599.206 410.348 596.872 420.492 595.44 430.782C593.593 439.826 590.853 448.664 587.261 457.166C583.013 469.85 581.427 487.482 578.321 491.731C573.4 503.658 570.259 516.245 569 529.087C569 536.444 573.311 556.295 577.56 561.305C581.808 566.315 583.012 569.867 585.739 573.355C588.465 576.844 590.748 583.82 595.821 582.678C600.893 581.537 601.654 584.264 604.38 586.167C608.122 590.063 613.009 592.662 618.33 593.587C624.828 593.205 631.347 593.46 637.795 594.348C641.691 595.137 645.465 596.437 649.018 598.217C651.364 599.802 651.745 597.836 651.745 597.836L645.404 641.344C643.882 651.872 640.775 711.108 638.429 717.451C636.083 723.793 632.089 766.413 631.011 775.355C629.297 794.076 628.662 812.88 629.109 831.674C629.109 831.674 629.489 833.957 632.976 833.957H643.439L647.37 889.959C645.336 915.273 644.68 940.68 645.404 966.066C647.344 982.737 647.748 999.551 646.609 1016.3C644.643 1026.76 645.024 1054.35 644.263 1064.12C643.502 1073.88 641.917 1090.94 640.775 1099.51C639.634 1108.07 635.703 1133.69 635.322 1141.49C634.942 1149.29 631.455 1200.54 631.455 1209.1C631.455 1217.66 627.143 1263.52 629.109 1268.97C632.693 1278.39 635.804 1287.97 638.429 1297.7C638.049 1299.22 632.596 1298.84 632.976 1301.19C633.357 1303.54 639.317 1320.6 640.775 1325.67C641.984 1328.62 642.505 1331.81 642.297 1334.99C641.917 1336.58 637.225 1343.17 632.976 1343.94C628.728 1344.7 615.857 1346.28 612.75 1353.64C609.643 1361 607.741 1366.32 607.741 1366.32C607.741 1366.32 603.429 1369.05 604.254 1371.02C605.078 1372.98 605.395 1377.99 606.536 1377.36C607.678 1376.72 734.743 1377.36 734.743 1377.36C734.808 1370.18 733.495 1363.05 730.875 1356.37C727.008 1349.39 731.636 1346.66 733.602 1342.79C735.567 1338.92 747.932 1319.83 747.932 1316.35C747.932 1312.86 744.064 1305.88 728.529 1299.22C728.529 1299.22 718.448 1291.1 727.769 1289.52C737.089 1287.93 741.718 1288 741.718 1280.58C741.718 1273.16 739.055 1215.31 735.377 1200.16C731.7 1185 721.428 1161.28 724.154 1152.78C726.881 1144.28 738.865 1111.56 739.689 1098.36C742.55 1079.68 746.788 1061.24 752.37 1043.19C755.097 1033.86 751.99 1014.46 754.716 1008.62C757.443 1002.79 763.213 966.256 766.32 953.825C769.426 941.394 777.606 895.54 780.712 884.061C783.819 872.581 786.546 847.149 789.653 847.974C792.76 848.798 800.115 861.546 802.334 869.727C804.553 877.909 815.015 898.077 816.727 908.922C818.439 919.768 826.809 957.504 829.408 967.588C832.008 977.672 844.182 1023.21 846.528 1032.53C848.874 1041.86 850.776 1054.67 852.869 1064.75C854.961 1074.83 863.711 1135.47 863.711 1147.2C863.711 1158.93 870.686 1199.65 872.271 1210.62C873.856 1221.59 883.177 1254.51 886.284 1266.56C889.391 1278.61 888.566 1293.01 902.199 1301.51C904.357 1302.97 906.95 1303.67 909.554 1303.47C912.403 1303.25 915.265 1303.25 918.114 1303.47C918.114 1303.47 907.588 1303.47 906.447 1309.31C905.03 1315.65 906.001 1322.29 909.173 1327.95C913.972 1334.78 917.515 1342.4 919.635 1350.47C920.576 1354.5 920.176 1358.73 918.494 1362.52C916.756 1367.24 916.233 1372.32 916.972 1377.3C918.114 1378.88 1037 1377.3 1037 1377.3L1036.62 1368.73L1031.55 1365.63C1031.32 1363.23 1030.59 1360.91 1029.38 1358.83C1028.18 1356.75 1026.54 1354.96 1024.57 1353.58C1017.53 1348.12 1007.07 1343.49 1003.58 1338.42C1000.1 1333.34 999.273 1329.09 1000.48 1327.95C1001.68 1326.81 1010.56 1308.1 1009.04 1301.51C1007.52 1294.91 996.991 1298.78 995.786 1288.31C995.427 1274.47 993.749 1260.68 990.777 1247.15C986.465 1232.76 978.096 1161.66 976.003 1147.64C973.911 1133.63 964.337 1035.77 961.23 1024.86C958.123 1013.95 950.704 940.189 948.041 926.173C945.378 912.157 942.588 857.424 944.49 848.862C945.457 840.676 944.942 832.383 942.969 824.38C942.588 823.239 967.063 823.62 968.965 816.58C968.965 816.58 956.982 762.607 955.396 748.211C953.811 733.814 941.828 668.172 937.516 649.906C933.204 631.64 929.019 615.341 929.019 615.341C929.019 615.341 953.431 596.314 968.585 594.348C972.698 592.286 976.099 589.039 978.349 585.025C982.993 577.406 988.185 570.136 993.884 563.271C997.14 559.375 999.325 554.697 1000.22 549.699C1000.99 544.625 1008.34 541.898 1004.47 524.33C1000.6 506.762 992.425 487.038 988.938 472.704C985.451 458.371 963.576 370.848 960.215 351.441C956.854 332.034 955.523 320.745 948.168 317.257C940.813 313.768 941.13 313.768 936.882 311.802C932.633 309.836 864.218 281.867 859.97 281.106C855.722 280.345 848.684 280.345 848.304 279.14C847.923 277.935 836.51 266.899 833.783 264.172C836.684 260.029 839.169 255.611 841.202 250.98C845.704 239.374 844.372 224.533 848.304 220.03C852.235 215.527 856.736 188.763 854.073 187.051C851.41 185.338 850.713 187.748 848.113 188.383C845.513 189.017 850.079 177.855 851.537 168.341C853.376 155.657 844.436 108.217 795.106 106.061C766.7 104.856 744.381 121.662 738.04 154.642C736.13 164.591 736.852 174.866 740.133 184.45C740.133 184.45 732.397 180.582 730.432 183.182C728.843 188.194 728.31 193.482 728.867 198.71C729.423 203.939 731.057 208.996 733.665 213.561C740.767 223.201 741.401 225.802 744.001 223.899C746.6 221.996 744.001 231.637 744.001 238.106C743.326 243.894 743.008 249.719 743.049 255.547C741.528 257.005 721.174 276.603 717.116 280.916C713.058 285.228 688.266 294.742 682.814 297.088Z" fill="white"/>
<path d="M1366.16 449.047C1364.38 449.047 1363.24 444.669 1362.61 443.463C1361.25 440.268 1359.66 437.172 1357.87 434.199C1356.98 433.501 1356.03 431.407 1354.01 432.422C1351.98 433.438 1353.56 437.562 1354.01 438.768C1354.45 439.973 1355.46 443.844 1356.35 445.62C1358.12 451.696 1360.39 457.617 1363.12 463.324C1365.78 466.877 1367.42 472.714 1369.95 474.935C1372.44 476.931 1374.71 479.186 1376.72 481.661C1378.18 483.692 1382.23 486.166 1383.05 488.006C1383.79 489.934 1384.79 491.749 1386.02 493.4C1387.54 495.748 1387.23 496.065 1389.31 497.842C1390.98 499.021 1392.57 500.314 1394.06 501.712C1394.57 502.474 1395.96 503.552 1396.34 504.758C1396.72 505.963 1391.34 516.75 1394.38 520.938C1397.41 525.126 1421.08 537.626 1427.66 545.05C1434.24 552.474 1438.04 550.126 1439.56 551.395C1441.07 552.664 1440.44 549.936 1454.99 561.23C1472.37 574.482 1490.43 586.809 1509.1 598.159C1513.52 600 1510.87 601.776 1511.18 602.982C1511.65 609.197 1511.03 615.446 1509.35 621.446C1507.26 624.429 1504.6 624.111 1503.02 627.792C1501.04 631.805 1499.64 636.077 1498.84 640.482C1498.84 643.781 1494.98 646.827 1493.53 651.205C1492.07 655.584 1488.78 656.282 1491.12 658.947C1493.47 661.612 1497.45 658.947 1495.87 664.657C1494.29 670.368 1486.38 695.939 1485.18 701.269C1482.86 707.43 1481.17 713.807 1480.11 720.305C1480.11 727.475 1477.46 734.328 1477.14 739.341C1476.21 744.06 1475.91 748.882 1476.26 753.681C1477.9 761.866 1477.96 762.881 1478.66 763.516L1479.8 764.404C1481.15 765.539 1482.71 766.392 1484.4 766.915C1486.08 767.438 1487.85 767.62 1489.61 767.45C1489.89 774.558 1489.76 781.676 1489.23 788.77C1493.53 887.311 1474.1 950.573 1474.1 957.743C1474.18 961.687 1473.58 965.614 1472.33 969.355L1517.32 982.87C1516.94 989.215 1516.18 1003.3 1516.25 1017.58C1516.25 1042.26 1530.55 1060.85 1534.15 1076.91C1536.75 1088.77 1543.58 1095.43 1549.84 1159.84C1551.3 1174.81 1564.46 1250.07 1566.42 1266.12C1568.38 1282.17 1572.75 1298.8 1562.25 1324.81C1555.35 1342.14 1558.01 1343.85 1554.08 1348.61C1546.36 1352.73 1541.43 1356.98 1539.47 1357.68C1537.51 1358.38 1508.91 1367.39 1513.59 1376.08C1518.27 1384.78 1554.4 1382.81 1554.4 1382.81L1598.69 1380.08C1598.69 1380.08 1606.1 1347.91 1611.35 1348.35C1616.6 1348.8 1614.01 1380.52 1614.01 1380.52L1627.36 1379.83C1627.36 1379.83 1630.08 1344.99 1639.44 1329.57C1648.81 1314.15 1636.72 1293.41 1622.67 1281.98C1622.67 1281.98 1624.57 1285.35 1618.69 1276.59C1611.47 1171.89 1631.34 1158.19 1621.41 1102.29C1621.41 1102.29 1663.49 1190.1 1670.89 1245.12C1678.29 1300.13 1671.52 1292.71 1669.56 1306.79C1667.11 1321.99 1663.06 1336.87 1657.48 1351.21C1654.82 1355.91 1654.82 1357.24 1650.14 1359.27C1645.45 1361.3 1634.76 1371.96 1644.13 1380.72C1644.13 1380.72 1709.62 1381.41 1718.35 1378.68C1718.35 1378.68 1721 1365.99 1723.66 1364.22C1726.32 1362.44 1725.05 1379.26 1725.05 1379.26H1732.33C1732.33 1379.26 1733.72 1338.08 1744.99 1323.99C1744.99 1323.99 1751.69 1316.82 1744.99 1299.37C1738.28 1281.92 1731.63 1278.05 1731.63 1278.05C1726.05 1273.94 1721.68 1268.39 1718.98 1262C1717.02 1253.94 1721.7 1162.12 1712.97 1095.05C1703.35 1042.58 1673.17 1013.33 1671.71 1000.57H1672.16C1674.81 1000.57 1684.81 950.636 1687.28 925.446C1696.26 831.6 1725.24 830.965 1723.66 787.374C1723.09 769.417 1723.66 765.229 1723.22 763.008C1724.15 762.643 1725.05 762.175 1725.88 761.612C1731.79 759.684 1737.1 756.226 1741.25 751.587C1745.05 745.242 1733.22 677.411 1733.22 663.959C1733.22 650.508 1714.23 606.852 1713.6 597.842C1712.97 588.832 1700.95 571.89 1700.95 571.89C1700.95 571.89 1729.48 563.832 1733.09 552.22C1739.55 533.686 1747.6 515.747 1757.14 498.603C1765.17 485.215 1768.71 437.816 1773.21 426.204C1777.7 414.592 1776.31 369.985 1772.32 362.752C1768.81 357.182 1764.55 352.122 1759.67 347.714C1759.72 347.165 1759.72 346.612 1759.67 346.064C1760.43 339.719 1763.97 250.378 1739.1 216.495C1732.45 210.389 1723.76 206.995 1714.74 206.977C1714.74 206.977 1712.84 203.296 1710.56 203.296C1708.29 203.296 1706.7 206.977 1705.63 206.469C1703 192.929 1696.64 180.4 1687.27 170.305C1677.89 160.21 1665.88 152.954 1652.6 149.362C1617.74 138.575 1605.15 143.651 1595.09 148.918C1585.03 154.184 1575.53 163.258 1575.03 167.954C1575.03 167.954 1555.41 186.291 1554.08 206.85C1554.08 206.85 1553.2 213.195 1552.76 215.733C1552.31 218.271 1550.79 219.54 1552.12 221.38C1553.45 223.22 1555.86 223.347 1556.3 226.076C1556.67 228.726 1556.04 231.42 1554.53 233.627C1549.97 237.938 1545.74 242.583 1541.87 247.523C1538.71 252.282 1544.09 254.629 1547.19 255.581C1547.19 255.581 1554.72 257.104 1552.82 262.243C1550.92 267.383 1551.3 268.589 1551.87 269.604C1556.22 272.045 1560.33 274.891 1564.14 278.107C1566.42 281.596 1560.47 282.675 1560.47 282.675C1560.47 282.675 1555.86 284.452 1557.12 287.434C1558.39 290.416 1561.61 290.86 1562.5 292.637C1562.49 295.539 1561.98 298.416 1560.98 301.14C1560.5 301.69 1560.16 302.346 1559.97 303.054C1559.79 303.762 1559.78 304.503 1559.93 305.218C1560.08 305.933 1560.4 306.602 1560.86 307.172C1561.32 307.742 1561.9 308.197 1562.56 308.5C1563.74 309.338 1565.04 309.981 1566.42 310.404C1565.93 310.749 1565.55 311.24 1565.35 311.808C1565.15 312.377 1565.12 312.994 1565.28 313.576C1565.24 313.786 1565.24 314.001 1565.28 314.211C1565.21 314.501 1565.22 314.804 1565.29 315.093C1565.37 315.381 1565.52 315.645 1565.73 315.861L1566.11 316.432C1569.84 324.681 1581.93 344.351 1583.63 349.998C1585.34 355.645 1573.57 339.465 1570.35 333.818C1567.12 328.17 1564.02 322.015 1561.04 326.521C1558.07 331.026 1566.3 346.762 1570.6 352.473L1574.27 359.325C1576.57 365.194 1577.84 371.421 1578 377.726C1573.45 380.899 1551.62 396.762 1545.67 412.879C1545.67 412.879 1524.28 453.108 1523.96 477.854C1522.23 483.836 1522.45 490.219 1524.6 496.065C1525.6 499.848 1525.94 503.776 1525.61 507.677L1522.51 522.397C1520.52 524.898 1517.64 526.516 1514.47 526.903C1508.17 526.267 1502.03 524.549 1496.31 521.826C1488.41 519.4 1481.29 514.911 1475.69 508.819C1475.69 508.819 1451.77 488.324 1439.62 479.377C1434.13 475.829 1429.06 471.679 1424.5 467.004C1423.36 467.058 1422.27 467.481 1421.4 468.209C1419.62 466.179 1414.56 460.151 1412.47 457.169C1409.44 452.696 1406.82 447.96 1404.63 443.019C1403.74 440.354 1401.02 437.245 1398.3 438.387C1397.32 439.295 1396.65 440.489 1396.39 441.799C1396.13 443.109 1396.29 444.469 1396.84 445.684C1398.3 448.666 1400.7 456.28 1402.48 459.263C1404.61 461.869 1405.93 465.047 1406.27 468.4C1406.27 471.382 1404.94 471.255 1402.73 472.651C1400.51 474.047 1397.16 471.192 1397.16 471.192C1397.72 468.953 1397.91 466.639 1397.73 464.339C1397.16 462.562 1396.27 461.039 1395.07 462.816C1394.11 464.998 1393.01 467.118 1391.78 469.161C1390.58 470.367 1387.92 468.273 1386.47 467.067C1384.01 465.617 1381.86 463.699 1380.14 461.42C1378.94 458.988 1378.01 456.436 1377.36 453.806C1376.85 452.099 1376.66 450.315 1376.79 448.539C1377.1 447.08 1378.11 444.034 1377.48 442.765C1377.23 442.11 1376.73 441.579 1376.09 441.283C1375.45 440.988 1374.73 440.95 1374.07 441.179C1373.5 441.179 1372.74 443.907 1372.74 443.907C1372.77 439.095 1371.91 434.318 1370.21 429.821C1367.8 425.95 1366.66 425.696 1365.52 427.219C1364.38 428.742 1365.52 431.407 1365.52 433.564C1365.52 435.722 1365.84 437.943 1365.84 439.402C1365.65 441.089 1365.65 442.792 1365.84 444.478C1366.85 446.572 1367.99 448.793 1366.16 449.047ZM1709.81 222.142C1713.79 221.698 1714.23 225.949 1714.23 227.472C1713.83 230.862 1712.93 234.175 1711.58 237.307C1710.44 239.337 1710.25 241.368 1708.67 242.002C1707.08 242.637 1707.34 240.924 1706.45 239.337C1705.57 237.751 1704.87 227.726 1704.43 226.647C1703.98 225.568 1708.03 222.332 1709.81 222.142ZM1679.94 288.703C1681.89 287.252 1684.01 286.058 1686.27 285.15C1689.33 283.871 1692.14 282.043 1694.56 279.756C1696.91 275.469 1699.6 271.374 1702.59 267.51C1705 266.812 1704.11 269.921 1704.11 271.761C1703.65 275.031 1702.84 278.242 1701.71 281.343C1700.8 284.607 1699.52 287.757 1697.91 290.734C1697.91 290.734 1695 293.843 1692.97 293.652C1690.59 293.793 1688.33 294.81 1686.65 296.508C1685.06 297.904 1682.41 301.901 1680.32 301.267C1678.23 300.632 1679.43 297.206 1678.8 294.921C1678.58 292.782 1678.97 290.624 1679.94 288.703ZM1595.78 309.96C1596.5 309.787 1597.26 309.821 1597.96 310.056C1598.67 310.292 1599.29 310.72 1599.77 311.292C1600.53 312.434 1602.3 314.845 1603.94 317.193C1606.06 321.238 1607.76 325.491 1609.01 329.884C1609.46 331.372 1609.75 332.903 1609.89 334.452C1609.84 335.5 1609.69 336.541 1609.45 337.561C1608.25 339.782 1605.15 338.577 1603.12 335.975C1600.27 331.914 1595.85 321.825 1591.8 314.147C1591.1 312.815 1590.47 311.419 1589.9 310.087C1591.86 310.21 1593.83 310.168 1595.78 309.96ZM1575.91 315.924C1575 314.34 1573.77 312.959 1572.31 311.863C1572.51 311.533 1572.83 311.286 1573.19 311.165C1574.21 310.721 1579.14 310.658 1579.9 310.404H1580.41C1583.51 320.429 1590.78 335.785 1591.35 339.211C1592.18 343.97 1580.34 323.158 1575.91 315.924Z" fill="white"/>
</g>
<defs>
<clipPath id="clip0_1_2">
<rect width="1920" height="960" fill="white"/>
</clipPath>
</defs>
</svg>
